<?xml version="1.0" standalone="no"?><!DOCTYPE svg PUBLIC "-//W3C//DTD SVG 1.1//EN" "http://www.w3.org/Graphics/SVG/1.1/DTD/svg11.dtd"><svg t="1733329382639" class="icon" viewBox="0 0 1024 1024" version="1.1" xmlns="http://www.w3.org/2000/svg" p-id="17296" xmlns:xlink="http://www.w3.org/1999/xlink" width="200" height="200"><path d="M725.333333 938.666667H298.666667c-23.466667 0-42.666667-19.2-42.666667-42.666667V170.666667c0-23.466667 19.2-42.666667 42.666667-42.666667h426.666666c23.466667 0 42.666667 19.2 42.666667 42.666667v725.333333c0 23.466667-19.2 42.666667-42.666667 42.666667z" fill="#8BC34A" p-id="17297"></path><path d="M597.333333 277.333333h-170.666666c-12.8 0-21.333333-8.533333-21.333334-21.333333V106.666667c0-12.8 8.533333-21.333333 21.333334-21.333334h170.666666c12.8 0 21.333333 8.533333 21.333334 21.333334v149.333333c0 12.8-8.533333 21.333333-21.333334 21.333333z" fill="#8BC34A" p-id="17298"></path><path d="M640 512h-117.333333l46.933333-234.666667L384 554.666667h117.333333l-46.933333 234.666666z" fill="#FFEB3B" p-id="17299"></path></svg>